<svg width="170" height="31" viewBox="0 0 170 31" fill="none" xmlns="http://www.w3.org/2000/svg">
<path d="M52.4412 0.698345C51.4756 1.22789 50.9429 1.85673 50.4768 2.94892C49.5778 5.1333 49.9441 6.62265 51.8086 8.50917C53.7397 10.4619 53.7064 11.4217 51.742 12.0836C48.6123 13.1096 46.3816 16.2538 46.0153 20.1923C45.5492 25.3885 49.9441 29.5256 55.9371 29.4925C59.9657 29.4925 63.0288 27.8376 64.7268 24.7927C65.9254 22.5422 66.1918 20.0599 65.4593 17.7762L64.8933 16.0552L66.0586 14.8968L67.2239 13.7054L68.5557 14.3011C70.5201 15.1947 73.7496 14.9299 75.4477 13.7384C77.5452 12.3153 78.3776 10.7928 78.5108 8.2113C78.6106 6.45717 78.5108 5.72904 77.978 4.70305C75.5143 -0.0297832 69.2882 -0.857201 65.992 3.1144C64.627 4.73614 64.1275 6.55646 64.3939 8.84013C64.5937 10.5943 64.5604 10.6936 63.3951 11.885L62.1632 13.1427L60.9646 12.4808C60.2987 12.1167 59.2 11.7526 58.5341 11.6534C57.4021 11.4548 57.2689 11.3224 57.2689 10.4288C57.2689 9.76684 57.6351 9.03871 58.4009 8.2113C59.9657 6.49027 60.2321 4.73614 59.2332 2.71724C58.0014 0.1357 55.0048 -0.75791 52.4412 0.698345ZM58.301 17.0812C60.1322 18.703 59.999 22.2443 58.0014 23.7667C56.7362 24.7597 54.8384 24.6273 53.5399 23.4689C52.6409 22.6746 52.4745 22.2774 52.3413 20.5233C52.2081 18.5375 52.2414 18.4382 53.3734 17.3129C54.905 15.7904 56.7362 15.6912 58.301 17.0812Z" fill="#270B53"/>
<path d="M15.715 6.62293C15.149 6.78841 13.3178 8.50944 10.8207 11.1903C8.62327 13.5401 6.72549 15.4928 6.59231 15.4928C6.45913 15.4928 6.32595 13.4739 6.32595 11.0248V6.55674H3.16298H0V17.8096V29.0625H3.16298H6.32595V26.3155V23.5684L7.59114 22.3439L8.88963 21.0862L12.0193 25.0578L15.149 29.0625H18.9446C21.9078 29.0625 22.6403 28.9632 22.4072 28.6322C22.2407 28.4337 20.1099 25.6866 17.7127 22.5424C15.2822 19.4314 13.3178 16.7505 13.3178 16.6512C13.3178 16.3865 15.0158 14.4669 19.2442 9.9326L22.3406 6.58983L19.4773 6.49054C17.9124 6.42435 16.2144 6.49054 15.715 6.62293Z" fill="#270B53"/>
<path d="M33.4959 11.5543C32.7634 11.7198 31.698 12.1501 31.0987 12.5472L29.9999 13.2092L29.9001 12.448C29.8002 11.7198 29.6337 11.6867 26.9035 11.5874L23.9736 11.4881V20.2919V29.0625H27.1366H30.2996V23.8994V18.7363L31.4316 17.611C32.8966 16.1548 34.2949 16.0886 35.66 17.4456L36.6255 18.4054V23.7339V29.0625H39.8218H43.0181L42.8849 22.6748C42.785 16.9822 42.6851 16.1879 42.0525 14.9964C41.6863 14.2683 41.087 13.4409 40.7541 13.143C38.9562 11.5874 35.9596 10.9255 33.4959 11.5543Z" fill="#270B53"/>
<path d="M79.7066 11.7848C79.5068 11.9172 78.6412 14.1016 77.7422 16.65C76.8766 19.1985 76.0109 21.4159 75.8777 21.5814C75.7446 21.7138 75.2451 20.5885 74.779 19.033L73.9134 16.1867L72.3152 15.9881C71.4496 15.8888 70.0512 15.5909 69.1855 15.3592C68.2866 15.0945 67.5874 14.929 67.5874 14.9952C67.5874 15.0283 67.9536 16.0212 68.3865 17.1796C68.8193 18.3379 69.8847 21.4159 70.7504 23.9975C71.5827 26.6121 72.4484 28.8296 72.6482 28.9289C73.1809 29.2599 78.2416 29.1937 78.5413 28.8627C78.7744 28.631 79.7066 26.215 81.7376 20.4892C82.0039 19.7611 82.1704 20.0921 83.7685 24.6263C84.6009 26.9431 85.3334 28.9289 85.4333 29.0282C85.5997 29.1937 91.2931 29.0944 91.4928 28.9289C91.6593 28.7634 97.5524 12.1489 97.5524 11.851C97.5524 11.3545 92.7247 11.4207 92.2919 11.9172C92.1254 12.1489 91.2598 14.3663 90.4274 16.8155C89.5618 19.2647 88.7294 21.4159 88.5962 21.5483C88.3632 21.78 86.4654 16.8155 85.4 13.1749C84.9671 11.7186 84.6009 11.52 82.2703 11.52C81.0717 11.52 79.9064 11.6524 79.7066 11.7848Z" fill="#270B53"/>
<path fill-rule="evenodd" clip-rule="evenodd" d="M149.794 3.95947H156.613V16.4859L161.417 10.033H169.921L161.721 19.9302L170 29.7663H161.447L156.613 23.1132V29.7663H149.794V3.95947ZM150.907 5.07184V28.6539H155.501V5.07184H150.907ZM155.557 19.7671L162.013 28.6539H167.61L160.271 19.9358L167.555 11.1453H161.976L155.557 19.7671Z" fill="#270B53"/>
<path fill-rule="evenodd" clip-rule="evenodd" d="M138.917 10.8785C137.397 10.8785 136.109 11.1246 135.039 11.5977C133.985 12.0734 133.205 12.7116 132.671 13.5019C132.156 14.2755 131.898 15.1351 131.898 16.0955C131.898 17.2667 132.194 18.1379 132.73 18.7682C133.317 19.4349 134.009 19.9264 134.813 20.2488C135.672 20.5705 136.758 20.886 138.075 21.1935L138.084 21.1955C139.33 21.5071 140.275 21.806 140.885 22.0975C141.226 22.2492 141.521 22.4623 141.73 22.755C141.945 23.0549 142.043 23.4019 142.043 23.7708C142.043 24.416 141.738 24.9425 141.211 25.3229L141.206 25.3264C140.696 25.6865 140.02 25.8286 139.25 25.8286C138.372 25.8286 137.593 25.6009 136.948 25.1167C136.435 24.7318 136.088 24.2416 135.922 23.6595H131.371C131.525 24.5181 131.873 25.3088 132.419 26.0374C133.087 26.9082 134.008 27.6099 135.202 28.1336C136.389 28.654 137.757 28.921 139.317 28.921C140.771 28.921 142.017 28.6858 143.068 28.2323L143.072 28.2308C144.154 27.773 144.942 27.1637 145.471 26.4186L145.473 26.4164C146.026 25.6466 146.302 24.7832 146.303 23.8088C146.282 22.6153 145.965 21.7333 145.408 21.102L145.402 21.0955L145.396 21.0889C144.807 20.377 144.127 19.8811 143.356 19.5846L143.344 19.5802C142.511 19.2382 141.417 18.8902 140.055 18.5385C138.848 18.2699 137.914 17.9935 137.282 17.7017L137.274 17.6982C136.932 17.5339 136.639 17.311 136.433 17.0134C136.223 16.7111 136.125 16.3644 136.125 15.9953C136.125 15.3777 136.384 14.8611 136.89 14.5091C137.379 14.1469 138.024 14.0042 138.75 14.0042C139.615 14.0042 140.372 14.2148 140.964 14.6914C141.442 15.0626 141.766 15.5405 141.934 16.1066H146.118C145.843 14.6123 145.156 13.413 144.062 12.4808L144.059 12.4779C142.854 11.4336 141.163 10.8785 138.917 10.8785ZM134.587 10.5812C135.83 10.0314 137.278 9.76611 138.917 9.76611C141.342 9.76611 143.321 10.3673 144.786 11.6357C146.259 12.8927 147.099 14.5627 147.312 16.6049L147.377 17.2189H141.002L140.935 16.7388C140.865 16.2294 140.646 15.8518 140.279 15.5678L140.269 15.5601C139.927 15.2831 139.439 15.1166 138.75 15.1166C138.146 15.1166 137.771 15.2391 137.549 15.4058L137.539 15.4127L137.53 15.4192C137.33 15.5565 137.237 15.727 137.237 15.9953C137.237 16.1602 137.278 16.2807 137.346 16.3789C137.417 16.4811 137.54 16.5913 137.752 16.6935C138.276 16.9344 139.117 17.1906 140.306 17.4547L140.315 17.4567L140.324 17.4591C141.714 17.8177 142.862 18.1802 143.761 18.5486C144.72 18.9188 145.549 19.5322 146.247 20.3726C147.021 21.2524 147.391 22.4132 147.415 23.7946L147.415 23.8041C147.415 25.0078 147.069 26.1004 146.377 27.0644C145.706 28.0089 144.737 28.7337 143.507 29.2545C142.289 29.7794 140.889 30.0334 139.317 30.0334C137.629 30.0334 136.105 29.7442 134.756 29.1523C133.414 28.5641 132.333 27.7537 131.534 26.7123L131.531 26.7074C130.734 25.6449 130.283 24.4536 130.186 23.1444L130.142 22.5472H136.882L136.934 23.0461C136.984 23.5321 137.201 23.9163 137.615 24.2268C138.038 24.5435 138.571 24.7163 139.25 24.7163C139.903 24.7163 140.316 24.5922 140.563 24.4193C140.835 24.2219 140.93 24.0147 140.93 23.7708C140.93 23.6057 140.889 23.4911 140.825 23.4016C140.758 23.3075 140.639 23.2047 140.428 23.1119L140.42 23.1082L140.411 23.1042C139.909 22.8632 139.056 22.5852 137.818 22.2757C136.471 21.9613 135.335 21.6327 134.417 21.2882L134.405 21.2839C133.433 20.8948 132.593 20.2978 131.891 19.4994L131.886 19.4932C131.133 18.6109 130.785 17.4585 130.785 16.0955C130.785 14.9206 131.105 13.845 131.746 12.8837L131.748 12.881C132.415 11.8927 133.37 11.1301 134.583 10.5828L134.587 10.5812Z" fill="#270B53"/>
<path fill-rule="evenodd" clip-rule="evenodd" d="M124.77 3.03766C123.889 3.03766 123.208 3.29785 122.679 3.78956C122.176 4.25732 121.922 4.84157 121.922 5.58497C121.922 6.29866 122.17 6.88596 122.679 7.38004C123.206 7.84859 123.887 8.09891 124.77 8.09891C125.631 8.09891 126.289 7.84845 126.794 7.38024C127.328 6.8829 127.584 6.29537 127.584 5.58497C127.584 4.84826 127.325 4.26633 126.801 3.7966L126.794 3.78986L126.787 3.78285C126.281 3.2955 125.625 3.03766 124.77 3.03766ZM121.922 2.97492C122.684 2.26561 123.649 1.92529 124.77 1.92529C125.869 1.92529 126.812 2.26588 127.551 2.97511C128.313 3.66129 128.697 4.5453 128.697 5.58497C128.697 6.60979 128.308 7.49054 127.552 8.19451C126.81 8.88293 125.866 9.21127 124.77 9.21127C123.654 9.21127 122.692 8.88556 121.929 8.20156L121.922 8.19482L121.914 8.18781C121.182 7.482 120.81 6.60318 120.81 5.58497C120.81 4.54859 121.18 3.66402 121.922 2.97492Z" fill="#270B53"/>
<path d="M121.693 11.123H127.811V29.477H121.693V11.123Z" stroke="#270B53" stroke-width="1.11237"/>
<path fill-rule="evenodd" clip-rule="evenodd" d="M99.2009 5.46094H109.335C111.243 5.46094 112.901 5.79407 114.287 6.48653C115.686 7.17426 116.752 8.13598 117.459 9.37743C118.156 10.5802 118.501 11.9229 118.501 13.3921C118.501 15.0621 118.021 16.567 117.061 17.8879C116.229 19.0604 115.052 19.9182 113.563 20.4762L119.113 29.9997H111.376L106.503 21.1564H106.02V29.9997H99.2009V5.46094ZM100.313 6.5733H109.335C111.118 6.5733 112.597 6.88505 113.791 7.48234L113.795 7.48402C115.02 8.08616 115.91 8.90324 116.493 9.92947L116.496 9.93359C117.088 10.955 117.388 12.1034 117.388 13.3921C117.388 14.8355 116.979 16.1107 116.16 17.2363L116.156 17.2417C115.373 18.3456 114.197 19.1503 112.579 19.6335L111.902 19.8358L117.177 28.8873H112.033L107.16 20.044H104.907V28.8873H100.313V6.5733ZM104.907 10.1996H109.001C110.126 10.1996 111.071 10.4741 111.726 11.1258C112.388 11.7629 112.694 12.6195 112.694 13.6257C112.694 14.6672 112.394 15.55 111.726 16.1923C111.071 16.844 110.126 17.1185 109.001 17.1185H104.907V10.1996ZM106.02 11.312V16.0061H109.001C109.965 16.0061 110.575 15.7701 110.944 15.4015L110.952 15.3931C111.349 15.0124 111.582 14.4508 111.582 13.6257C111.582 12.8542 111.355 12.3107 110.952 11.9249L110.944 11.9167C110.575 11.5481 109.965 11.312 109.001 11.312H106.02Z" fill="#270B53"/>
</svg>
