<svg width="120" height="60" viewBox="0 0 132 41" fill="none" xmlns="http://www.w3.org/2000/svg">
<rect x="0.4" y="1.18271" width="39.2" height="39.2" rx="19.6" fill="#8754FE"/>
<rect x="0.4" y="1.18271" width="39.2" height="39.2" rx="19.6" stroke="#DACAFF" stroke-width="0.8"/>
<g clip-path="url(#clip0_0_6977)">
<path d="M26.7494 22.1062C26.7401 22.1318 26.7257 22.1552 26.707 22.175L21.2649 27.6112C21.061 27.8135 20.7853 27.9271 20.498 27.9271C20.2106 27.9271 19.935 27.8135 19.731 27.6112L14.2933 22.175C14.2733 22.1548 14.2583 22.1303 14.2494 22.1033C13.6419 21.4732 13.2332 20.6783 13.0742 19.8176C12.9152 18.957 13.013 18.0685 13.3554 17.263C13.6977 16.4575 14.2695 15.7705 14.9996 15.2877C15.7296 14.8048 16.5855 14.5475 17.4608 14.5477C18.5898 14.544 19.6775 14.9724 20.5009 15.745C21.3513 14.9517 22.4778 14.522 23.6404 14.5475C24.8031 14.5729 25.9098 15.0514 26.7247 15.881C27.5396 16.7106 27.9982 17.8257 28.0029 18.9886C28.0075 20.1514 27.5577 21.2701 26.7494 22.1062Z" fill="#FAF8FF"/>
</g>
<rect x="44" y="0.782715" width="40" height="40" rx="20" fill="#FAF8FF"/>
<g clip-path="url(#clip1_0_6977)">
<path d="M69.8033 15.7462C68.39 14.3736 66.4934 13.6123 64.5233 13.6267C62.5532 13.6411 60.6679 14.4301 59.2748 15.8232C57.8817 17.2163 57.0927 19.1016 57.0783 21.0717C57.0639 23.0417 57.8253 24.9384 59.1979 26.3517C60.6112 27.7243 62.5078 28.4856 64.4779 28.4712C66.448 28.4568 68.3333 27.6678 69.7264 26.2747C71.1195 24.8816 71.9085 22.9963 71.9229 21.0263C71.9373 19.0562 71.1759 17.1595 69.8033 15.7462ZM61.4118 17.9616C61.8794 17.9622 62.3276 18.1481 62.6581 18.4787C62.9887 18.8093 63.1747 19.2575 63.1752 19.725C63.1752 19.8416 63.1289 19.9534 63.0465 20.0358C62.9641 20.1182 62.8523 20.1645 62.7358 20.1645C62.6192 20.1645 62.5074 20.1182 62.425 20.0358C62.3426 19.9534 62.2963 19.8416 62.2963 19.725C62.2921 19.4934 62.1971 19.2726 62.0318 19.1102C61.8664 18.9479 61.644 18.8569 61.4123 18.8569C61.1806 18.8569 60.9581 18.9479 60.7928 19.1102C60.6275 19.2726 60.5325 19.4934 60.5282 19.725C60.5282 19.8416 60.482 19.9534 60.3995 20.0358C60.3171 20.1182 60.2053 20.1645 60.0888 20.1645C59.9722 20.1645 59.8605 20.1182 59.7781 20.0358C59.6956 19.9534 59.6493 19.8416 59.6493 19.725C59.6499 19.2577 59.8357 18.8096 60.1661 18.479C60.4965 18.1485 60.9445 17.9624 61.4118 17.9616ZM69.1799 24.4489C69.1391 24.4897 69.0906 24.5222 69.0373 24.5443C68.9839 24.5664 68.9267 24.5778 68.8689 24.5778C68.8112 24.5778 68.754 24.5664 68.7006 24.5443C68.6472 24.5222 68.5988 24.4897 68.5579 24.4489C68.0251 23.9159 67.3926 23.4931 66.6964 23.2047C66.0001 22.9162 65.2539 22.7678 64.5003 22.7678C63.7467 22.7678 63.0005 22.9162 62.3043 23.2047C61.6081 23.4931 60.9755 23.9159 60.4427 24.4489C60.3602 24.5313 60.2484 24.5777 60.1317 24.5777C60.0151 24.5777 59.9032 24.5313 59.8207 24.4489C59.7383 24.3664 59.6919 24.2545 59.6919 24.1379C59.6919 24.0212 59.7383 23.9094 59.8207 23.8269C60.4352 23.2124 61.1647 22.7249 61.9676 22.3923C62.7705 22.0597 63.631 21.8886 64.5 21.8886C65.3691 21.8886 66.2296 22.0597 67.0325 22.3923C67.8353 22.7249 68.5648 23.2124 69.1793 23.8269C69.2202 23.8677 69.2527 23.9161 69.2749 23.9694C69.2971 24.0228 69.3085 24.08 69.3086 24.1377C69.3086 24.1955 69.2973 24.2527 69.2752 24.3061C69.2531 24.3595 69.2208 24.408 69.1799 24.4489ZM68.9133 20.1648C68.7968 20.1648 68.685 20.1185 68.6026 20.0361C68.5202 19.9536 68.4739 19.8419 68.4739 19.7253C68.4696 19.4936 68.3746 19.2729 68.2093 19.1105C68.044 18.9482 67.8215 18.8572 67.5898 18.8572C67.3581 18.8572 67.1357 18.9482 66.9703 19.1105C66.805 19.2729 66.71 19.4936 66.7058 19.7253C66.7058 19.8419 66.6595 19.9536 66.5771 20.0361C66.4947 20.1185 66.3829 20.1648 66.2663 20.1648C66.1498 20.1648 66.038 20.1185 65.9556 20.0361C65.8732 19.9536 65.8269 19.8419 65.8269 19.7253C65.8329 19.2615 66.0213 18.8188 66.3514 18.4929C66.6814 18.1671 67.1266 17.9844 67.5904 17.9844C68.0542 17.9844 68.4994 18.1671 68.8294 18.4929C69.1595 18.8188 69.348 19.2615 69.3539 19.7253C69.3539 19.7831 69.3425 19.8404 69.3204 19.8938C69.2982 19.9472 69.2657 19.9957 69.2248 20.0365C69.1839 20.0773 69.1353 20.1096 69.0818 20.1317C69.0284 20.1537 68.9711 20.1649 68.9133 20.1648Z" fill="#8754FE"/>
</g>
<rect x="88" y="0.782715" width="40" height="40" rx="20" fill="#FAF8FF"/>
<g clip-path="url(#clip2_0_6977)">
<path d="M107.035 25.0327C106.792 25.0327 106.596 24.836 106.596 24.5933C106.596 24.3506 106.792 24.1538 107.035 24.1538C107.601 24.1538 108.061 23.6938 108.061 23.1284V16.5366C108.061 15.5658 107.274 14.7788 106.303 14.7788C105.332 14.7788 104.545 15.5658 104.545 16.5366V16.5808C103.543 16.785 102.787 17.6728 102.787 18.7339V19.2169C101.769 19.4215 101 20.3225 101 21.3999V21.9272C101 23.0046 101.769 23.9057 102.787 24.1103V24.5933C102.787 25.6544 103.543 26.5422 104.545 26.7464V26.7905C104.545 27.7613 105.332 28.5483 106.303 28.5483C107.274 28.5483 108.061 27.7613 108.061 26.7905V24.7318C107.764 24.9219 107.413 25.0327 107.035 25.0327Z" fill="#8754FE"/>
<path d="M114.213 19.2169V18.7339C114.213 17.6728 113.457 16.785 112.455 16.5808V16.5366C112.455 15.5658 111.668 14.7788 110.697 14.7788C109.726 14.7788 108.939 15.5658 108.939 16.5366V18.5953C109.236 18.4052 109.587 18.2944 109.965 18.2944C110.208 18.2944 110.404 18.4912 110.404 18.7339C110.404 18.9766 110.208 19.1733 109.965 19.1733C109.399 19.1733 108.939 19.6333 108.939 20.1987V26.7905C108.939 27.7613 109.726 28.5483 110.697 28.5483C111.668 28.5483 112.455 27.7613 112.455 26.7905V26.7464C113.457 26.5422 114.213 25.6544 114.213 24.5933V24.1103C115.231 23.9057 116 23.0046 116 21.9272V21.3999C116 20.3225 115.231 19.4215 114.213 19.2169Z" fill="#8754FE"/>
<path d="M115.871 13.677C115.7 13.5054 115.422 13.5054 115.25 13.677L113.785 15.1419C113.562 15.365 113.64 15.7435 113.933 15.8606L114.954 16.2692L114.582 17.0139C114.473 17.231 114.561 17.4949 114.778 17.6035C114.995 17.712 115.259 17.624 115.368 17.407L115.954 16.2351C116.069 16.0051 115.963 15.726 115.724 15.6305L114.878 15.2921L115.871 14.2985C116.043 14.1269 116.043 13.8486 115.871 13.677Z" fill="#8754FE"/>
<path d="M101.129 13.677C100.957 13.8487 100.957 14.1269 101.129 14.2985L102.122 15.2921L101.276 15.6305C101.038 15.726 100.932 16.0051 101.047 16.2351L101.632 17.407C101.741 17.6241 102.005 17.712 102.222 17.6035C102.439 17.4949 102.527 17.231 102.419 17.0139L102.046 16.2692L103.068 15.8606C103.361 15.7435 103.438 15.365 103.215 15.1419L101.75 13.677C101.579 13.5054 101.3 13.5054 101.129 13.677Z" fill="#8754FE"/>
</g>
<defs>
<clipPath id="clip0_0_6977">
<rect width="15" height="13.3797" fill="white" transform="translate(13 14.5483)"/>
</clipPath>
<clipPath id="clip1_0_6977">
<rect width="15" height="15" fill="white" transform="translate(57 13.5483)"/>
</clipPath>
<clipPath id="clip2_0_6977">
<rect width="15" height="15" fill="white" transform="translate(101 13.5483)"/>
</clipPath>
</defs>
</svg>
