<svg width="133" height="96" viewBox="0 0 133 96" fill="none" xmlns="http://www.w3.org/2000/svg">
<path d="M123.551 93.4458C124.871 94.0661 126.448 93.5012 127.015 92.1581C131.014 82.6864 132.75 72.3991 132.068 62.1161C131.327 50.954 127.762 40.1632 121.706 30.7572C115.651 21.3512 107.304 13.6386 97.4499 8.34372C87.5957 3.04881 76.5574 0.345359 65.3717 0.487243C54.1859 0.629126 43.2198 3.61169 33.503 9.15484C23.7863 14.698 15.6379 22.6198 9.82294 32.1764C4.00803 41.733 0.717449 52.6107 0.260231 63.788C-0.160977 74.085 1.83518 84.325 6.07312 93.6922C6.67408 95.0205 8.26558 95.5452 9.5688 94.8916C10.872 94.238 11.393 92.6538 10.7967 91.3234C6.95721 82.7578 5.15082 73.4066 5.53546 64.0038C5.9561 53.7205 8.98347 43.7129 14.3332 34.9208C19.683 26.1287 27.1797 18.8405 36.1192 13.7407C45.0586 8.64098 55.1476 5.89699 65.4386 5.76645C75.7297 5.63592 85.885 8.12313 94.951 12.9945C104.017 17.8659 111.696 24.9615 117.267 33.6152C122.838 42.2688 126.118 52.1964 126.8 62.4656C127.423 71.8557 125.854 81.2497 122.233 89.9099C121.671 91.255 122.232 92.8255 123.551 93.4458Z" fill="url(#paint0_linear_0_7302)"/>
<defs>
<linearGradient id="paint0_linear_0_7302" x1="0.205078" y1="60.8166" x2="132.213" y2="60.8166" gradientUnits="userSpaceOnUse">
<stop stop-color="#E95050"/>
<stop offset="0.47" stop-color="#FFA224"/>
<stop offset="0.945" stop-color="#2AC686"/>
</linearGradient>
</defs>
</svg>
