<svg width="120" height="11" viewBox="0 0 120 11" fill="none" xmlns="http://www.w3.org/2000/svg">
<rect x="0.75" y="0.855957" width="7" height="7" rx="3.5" fill="#E95050"/>
<path d="M13.472 7.11596H15.912V7.85596H12.562V0.885957H13.472V7.11596ZM19.2684 7.94596C18.7551 7.94596 18.2884 7.82929 17.8684 7.59596C17.4551 7.36262 17.1284 7.03262 16.8884 6.60596C16.6551 6.17262 16.5384 5.67262 16.5384 5.10596C16.5384 4.54596 16.6584 4.05262 16.8984 3.62596C17.1451 3.19262 17.4784 2.86262 17.8984 2.63596C18.3184 2.40262 18.7884 2.28596 19.3084 2.28596C19.8284 2.28596 20.2984 2.40262 20.7184 2.63596C21.1384 2.86262 21.4684 3.18929 21.7084 3.61596C21.9551 4.04262 22.0784 4.53929 22.0784 5.10596C22.0784 5.67262 21.9517 6.17262 21.6984 6.60596C21.4517 7.03262 21.1151 7.36262 20.6884 7.59596C20.2617 7.82929 19.7884 7.94596 19.2684 7.94596ZM19.2684 7.14596C19.5951 7.14596 19.9017 7.06929 20.1884 6.91596C20.4751 6.76262 20.7051 6.53262 20.8784 6.22596C21.0584 5.91929 21.1484 5.54596 21.1484 5.10596C21.1484 4.66596 21.0617 4.29262 20.8884 3.98596C20.7151 3.67929 20.4884 3.45262 20.2084 3.30596C19.9284 3.15262 19.6251 3.07596 19.2984 3.07596C18.9651 3.07596 18.6584 3.15262 18.3784 3.30596C18.1051 3.45262 17.8851 3.67929 17.7184 3.98596C17.5517 4.29262 17.4684 4.66596 17.4684 5.10596C17.4684 5.55262 17.5484 5.92929 17.7084 6.23596C17.8751 6.54262 18.0951 6.77262 18.3684 6.92596C18.6417 7.07262 18.9417 7.14596 19.2684 7.14596ZM30.5749 2.37596L28.8649 7.85596H27.9249L26.6049 3.50596L25.2849 7.85596H24.3449L22.6249 2.37596H23.5549L24.8149 6.97596L26.1749 2.37596H27.1049L28.4349 6.98596L29.6749 2.37596H30.5749Z" fill="#270B53"/>
<rect x="38.75" y="0.855957" width="7" height="7" rx="3.5" fill="#FFA224"/>
<path d="M56.133 2.90596C55.9397 2.49929 55.6597 2.18596 55.293 1.96596C54.9263 1.73929 54.4997 1.62596 54.013 1.62596C53.5263 1.62596 53.0863 1.73929 52.693 1.96596C52.3063 2.18596 51.9997 2.50596 51.773 2.92596C51.553 3.33929 51.443 3.81929 51.443 4.36596C51.443 4.91262 51.553 5.39262 51.773 5.80596C51.9997 6.21929 52.3063 6.53929 52.693 6.76596C53.0863 6.98596 53.5263 7.09596 54.013 7.09596C54.693 7.09596 55.253 6.89262 55.693 6.48596C56.133 6.07929 56.3897 5.52929 56.463 4.83596H53.683V4.09596H57.433V4.79596C57.3797 5.36929 57.1997 5.89596 56.893 6.37596C56.5863 6.84929 56.183 7.22596 55.683 7.50596C55.183 7.77929 54.6263 7.91596 54.013 7.91596C53.3663 7.91596 52.7763 7.76596 52.243 7.46596C51.7097 7.15929 51.2863 6.73596 50.973 6.19596C50.6663 5.65596 50.513 5.04596 50.513 4.36596C50.513 3.68596 50.6663 3.07596 50.973 2.53596C51.2863 1.98929 51.7097 1.56596 52.243 1.26596C52.7763 0.95929 53.3663 0.805957 54.013 0.805957C54.753 0.805957 55.4063 0.98929 55.973 1.35596C56.5463 1.72262 56.963 2.23929 57.223 2.90596H56.133ZM61.0262 7.94596C60.5129 7.94596 60.0462 7.82929 59.6262 7.59596C59.2129 7.36262 58.8862 7.03262 58.6462 6.60596C58.4129 6.17262 58.2962 5.67262 58.2962 5.10596C58.2962 4.54596 58.4162 4.05262 58.6562 3.62596C58.9029 3.19262 59.2362 2.86262 59.6562 2.63596C60.0762 2.40262 60.5462 2.28596 61.0662 2.28596C61.5862 2.28596 62.0562 2.40262 62.4762 2.63596C62.8962 2.86262 63.2262 3.18929 63.4662 3.61596C63.7129 4.04262 63.8362 4.53929 63.8362 5.10596C63.8362 5.67262 63.7095 6.17262 63.4562 6.60596C63.2095 7.03262 62.8729 7.36262 62.4462 7.59596C62.0195 7.82929 61.5462 7.94596 61.0262 7.94596ZM61.0262 7.14596C61.3529 7.14596 61.6595 7.06929 61.9462 6.91596C62.2329 6.76262 62.4629 6.53262 62.6362 6.22596C62.8162 5.91929 62.9062 5.54596 62.9062 5.10596C62.9062 4.66596 62.8195 4.29262 62.6462 3.98596C62.4729 3.67929 62.2462 3.45262 61.9662 3.30596C61.6862 3.15262 61.3829 3.07596 61.0562 3.07596C60.7229 3.07596 60.4162 3.15262 60.1362 3.30596C59.8629 3.45262 59.6429 3.67929 59.4762 3.98596C59.3095 4.29262 59.2262 4.66596 59.2262 5.10596C59.2262 5.55262 59.3062 5.92929 59.4662 6.23596C59.6329 6.54262 59.8529 6.77262 60.1262 6.92596C60.3995 7.07262 60.6995 7.14596 61.0262 7.14596ZM67.4227 7.94596C66.9094 7.94596 66.4427 7.82929 66.0227 7.59596C65.6094 7.36262 65.2827 7.03262 65.0427 6.60596C64.8094 6.17262 64.6927 5.67262 64.6927 5.10596C64.6927 4.54596 64.8127 4.05262 65.0527 3.62596C65.2994 3.19262 65.6327 2.86262 66.0527 2.63596C66.4727 2.40262 66.9427 2.28596 67.4627 2.28596C67.9827 2.28596 68.4527 2.40262 68.8727 2.63596C69.2927 2.86262 69.6227 3.18929 69.8627 3.61596C70.1094 4.04262 70.2327 4.53929 70.2327 5.10596C70.2327 5.67262 70.106 6.17262 69.8527 6.60596C69.606 7.03262 69.2694 7.36262 68.8427 7.59596C68.416 7.82929 67.9427 7.94596 67.4227 7.94596ZM67.4227 7.14596C67.7494 7.14596 68.056 7.06929 68.3427 6.91596C68.6294 6.76262 68.8594 6.53262 69.0327 6.22596C69.2127 5.91929 69.3027 5.54596 69.3027 5.10596C69.3027 4.66596 69.216 4.29262 69.0427 3.98596C68.8694 3.67929 68.6427 3.45262 68.3627 3.30596C68.0827 3.15262 67.7794 3.07596 67.4527 3.07596C67.1194 3.07596 66.8127 3.15262 66.5327 3.30596C66.2594 3.45262 66.0394 3.67929 65.8727 3.98596C65.706 4.29262 65.6227 4.66596 65.6227 5.10596C65.6227 5.55262 65.7027 5.92929 65.8627 6.23596C66.0294 6.54262 66.2494 6.77262 66.5227 6.92596C66.796 7.07262 67.096 7.14596 67.4227 7.14596ZM71.0892 5.09596C71.0892 4.53596 71.2025 4.04596 71.4292 3.62596C71.6558 3.19929 71.9658 2.86929 72.3592 2.63596C72.7592 2.40262 73.2058 2.28596 73.6992 2.28596C74.1258 2.28596 74.5225 2.38596 74.8892 2.58596C75.2558 2.77929 75.5358 3.03596 75.7292 3.35596V0.455957H76.6492V7.85596H75.7292V6.82596C75.5492 7.15262 75.2825 7.42262 74.9292 7.63596C74.5758 7.84262 74.1625 7.94596 73.6892 7.94596C73.2025 7.94596 72.7592 7.82596 72.3592 7.58596C71.9658 7.34596 71.6558 7.00929 71.4292 6.57596C71.2025 6.14262 71.0892 5.64929 71.0892 5.09596ZM75.7292 5.10596C75.7292 4.69262 75.6458 4.33262 75.4792 4.02596C75.3125 3.71929 75.0858 3.48596 74.7992 3.32596C74.5192 3.15929 74.2092 3.07596 73.8692 3.07596C73.5292 3.07596 73.2192 3.15596 72.9392 3.31596C72.6592 3.47596 72.4358 3.70929 72.2692 4.01596C72.1025 4.32262 72.0192 4.68262 72.0192 5.09596C72.0192 5.51596 72.1025 5.88262 72.2692 6.19596C72.4358 6.50262 72.6592 6.73929 72.9392 6.90596C73.2192 7.06596 73.5292 7.14596 73.8692 7.14596C74.2092 7.14596 74.5192 7.06596 74.7992 6.90596C75.0858 6.73929 75.3125 6.50262 75.4792 6.19596C75.6458 5.88262 75.7292 5.51929 75.7292 5.10596Z" fill="#270B53"/>
<rect x="85.75" y="0.855957" width="7" height="7" rx="3.5" fill="#2AC686"/>
<path d="M103.12 0.885957V7.85596H102.21V4.69596H98.6605V7.85596H97.7505V0.885957H98.6605V3.94596H102.21V0.885957H103.12ZM105.144 1.48596C104.971 1.48596 104.824 1.42596 104.704 1.30596C104.584 1.18596 104.524 1.03929 104.524 0.865956C104.524 0.692623 104.584 0.545957 104.704 0.425957C104.824 0.305957 104.971 0.245957 105.144 0.245957C105.311 0.245957 105.451 0.305957 105.564 0.425957C105.684 0.545957 105.744 0.692623 105.744 0.865956C105.744 1.03929 105.684 1.18596 105.564 1.30596C105.451 1.42596 105.311 1.48596 105.144 1.48596ZM105.584 2.37596V7.85596H104.674V2.37596H105.584ZM109.395 2.28596C109.869 2.28596 110.282 2.38929 110.635 2.59596C110.995 2.80262 111.262 3.06262 111.435 3.37596V2.37596H112.355V7.97596C112.355 8.47596 112.249 8.91929 112.035 9.30596C111.822 9.69929 111.515 10.006 111.115 10.226C110.722 10.446 110.262 10.556 109.735 10.556C109.015 10.556 108.415 10.386 107.935 10.046C107.455 9.70596 107.172 9.24262 107.085 8.65596H107.985C108.085 8.98929 108.292 9.25596 108.605 9.45596C108.919 9.66262 109.295 9.76596 109.735 9.76596C110.235 9.76596 110.642 9.60929 110.955 9.29596C111.275 8.98262 111.435 8.54262 111.435 7.97596V6.82596C111.255 7.14596 110.989 7.41262 110.635 7.62596C110.282 7.83929 109.869 7.94596 109.395 7.94596C108.909 7.94596 108.465 7.82596 108.065 7.58596C107.672 7.34596 107.362 7.00929 107.135 6.57596C106.909 6.14262 106.795 5.64929 106.795 5.09596C106.795 4.53596 106.909 4.04596 107.135 3.62596C107.362 3.19929 107.672 2.86929 108.065 2.63596C108.465 2.40262 108.909 2.28596 109.395 2.28596ZM111.435 5.10596C111.435 4.69262 111.352 4.33262 111.185 4.02596C111.019 3.71929 110.792 3.48596 110.505 3.32596C110.225 3.15929 109.915 3.07596 109.575 3.07596C109.235 3.07596 108.925 3.15596 108.645 3.31596C108.365 3.47596 108.142 3.70929 107.975 4.01596C107.809 4.32262 107.725 4.68262 107.725 5.09596C107.725 5.51596 107.809 5.88262 107.975 6.19596C108.142 6.50262 108.365 6.73929 108.645 6.90596C108.925 7.06596 109.235 7.14596 109.575 7.14596C109.915 7.14596 110.225 7.06596 110.505 6.90596C110.792 6.73929 111.019 6.50262 111.185 6.19596C111.352 5.88262 111.435 5.51929 111.435 5.10596ZM116.613 2.27596C117.026 2.27596 117.4 2.36596 117.733 2.54596C118.066 2.71929 118.326 2.98262 118.513 3.33596C118.706 3.68929 118.803 4.11929 118.803 4.62596V7.85596H117.903V4.75596C117.903 4.20929 117.766 3.79262 117.493 3.50596C117.22 3.21262 116.846 3.06596 116.373 3.06596C115.893 3.06596 115.51 3.21596 115.223 3.51596C114.943 3.81596 114.803 4.25262 114.803 4.82596V7.85596H113.893V0.455957H114.803V3.15596C114.983 2.87596 115.23 2.65929 115.543 2.50596C115.863 2.35262 116.22 2.27596 116.613 2.27596Z" fill="#270B53"/>
</svg>
